<svg width="46" height="51" viewBox="0 0 46 51" fill="none" xmlns="http://www.w3.org/2000/svg">
<path d="M41.9189 6.62706H41.3256C42.4565 4.78599 42.0389 2.31426 40.224 0.967702C38.2684 -0.48305 35.4895 -0.0160675 34.1248 2.02335L31.0442 6.62716H4.58014C2.40489 6.62716 0.635193 8.39685 0.635193 10.5721V35.7937C0.635193 37.9689 2.40489 39.7386 4.58014 39.7386H19.9035L18.7457 44.6015H16.2468C14.6182 44.6015 13.2932 45.9264 13.2932 47.555V48.1717H10.2127C9.6734 48.1717 9.2362 48.609 9.2362 49.1482C9.2362 49.6874 9.6734 50.1247 10.2127 50.1247H36.2864C36.8257 50.1247 37.2629 49.6874 37.2629 49.1482C37.2629 48.609 36.8257 48.1717 36.2864 48.1717H33.2058V47.555C33.2058 45.9264 31.8809 44.6015 30.2523 44.6015H27.7534L26.5956 39.7386H41.919C44.0942 39.7386 45.8639 37.9689 45.8639 35.7937V30.244V10.572C45.8639 8.39676 44.0942 6.62706 41.9189 6.62706ZM27.9268 23.7946C26.3999 24.8634 23.5395 23.4106 20.8079 24.8682C20.1415 21.4059 20.5617 18.1496 24.0308 17.4309C24.4792 17.3374 24.9619 17.2951 25.3728 17.3033C26.547 18.1745 27.7347 19.0556 28.9055 19.9245C29.4181 21.4154 29.2257 22.8853 27.9268 23.7946ZM28.9109 13.3272L31.6752 15.3782L29.5494 17.97C28.6742 17.3207 27.9219 16.7625 27.0467 16.1131C27.2284 15.8415 28.7448 13.5754 28.9109 13.3272ZM35.7481 3.10955C36.4877 2.00401 37.9962 1.74679 39.0602 2.53632C40.1247 3.32596 40.3153 4.84409 39.4718 5.87249C37.9753 7.69696 34.4174 12.0349 32.9151 13.8664L29.9982 11.7022L35.7481 3.10955ZM31.2527 47.555V48.1717H15.2463V47.555C15.2463 47.0034 15.6952 46.5546 16.2468 46.5546H30.2522C30.8038 46.5546 31.2527 47.0034 31.2527 47.555ZM25.7456 44.6015H20.7534L21.9111 39.7386H24.5879L25.7456 44.6015ZM43.9108 35.7937C43.9108 36.892 43.0173 37.7855 41.919 37.7855C40.3688 37.7855 6.32317 37.7855 4.58023 37.7855C3.48191 37.7855 2.58838 36.892 2.58838 35.7937V31.2205H5.37895C5.91829 31.2205 6.35549 30.7832 6.35549 30.244C6.35549 29.7047 5.91829 29.2674 5.37895 29.2674H2.58818V10.572C2.58818 9.47369 3.48172 8.58015 4.58004 8.58015H29.7373C28.8017 9.97827 26.0724 14.0571 25.2079 15.349C23.2941 15.3662 21.3835 16.0329 20.1328 17.4931C18.4307 19.4798 18.1317 22.6017 19.244 26.7717C19.4341 27.4848 20.3239 27.7402 20.8622 27.226C23.3873 24.8132 26.5322 27.445 29.3484 25.1656C31.0675 23.774 31.4743 21.5617 30.8261 19.493C31.7024 18.4247 38.8986 9.65103 39.7769 8.58015H41.9188C43.0171 8.58015 43.9106 9.47369 43.9106 10.572V29.2673H13.1911C12.6518 29.2673 12.2146 29.7046 12.2146 30.2439C12.2146 30.7831 12.6518 31.2204 13.1911 31.2204H43.9108V35.7937Z" fill="#3D3D3F"/>
<path d="M9.09601 29.2863C8.62589 29.3824 8.31085 29.7888 8.31085 30.2444C8.31085 30.8553 8.86935 31.323 9.47785 31.2015C10.0186 31.0917 10.348 30.5706 10.2444 30.053C10.1358 29.5188 9.61759 29.1813 9.09601 29.2863Z" fill="#3D3D3F"/>
</svg>
